<svg xmlns="http://www.w3.org/2000/svg" xmlns:xlink="http://www.w3.org/1999/xlink" width="458" height="244" version="1.1" viewBox="0 0 458 244"><defs><radialGradient id="radialGradient-1" cx="55.477%" cy="81.026%" r="184.537%" fx="55.477%" fy="81.026%" gradientTransform="translate(0.554772,0.810257),scale(0.354747,1.000000),rotate(-11.496070),translate(-0.554772,-0.810257)"><stop offset="0%" stop-color="#168196"/><stop offset="100%" stop-color="#190066"/></radialGradient><path id="path-2" d="M83.9549019,0.987154202 C91.5630394,10.5950298 94.5156603,15.0808596 92.5846958,19.2127401 C89.8078717,25.154592 76.9755963,33.7000321 48.020541,33.7000448 C19.0654857,33.7000575 4.29571245,25.1545967 1.51888622,19.2127401 C-0.412078323,15.0808596 2.54054262,10.5950298 10.1486801,0.987154202 L83.9549019,0.987154202 Z"/><linearGradient id="linearGradient-4" x1="55.477%" x2="119.628%" y1="53.992%" y2="49.26%"><stop offset="0%" stop-color="#544D91"/><stop offset="100%" stop-color="#13025A"/></linearGradient><linearGradient id="linearGradient-5" x1="55.477%" x2="119.628%" y1="53.311%" y2="49.386%"><stop offset="0%" stop-color="#13025A"/><stop offset="100%" stop-color="#544D91"/></linearGradient><linearGradient id="linearGradient-6" x1="32.046%" x2="153.76%" y1="45.452%" y2="45.452%"><stop offset="0%" stop-color="#587EFF"/><stop offset="100%" stop-color="#A759DD"/></linearGradient><linearGradient id="linearGradient-7" x1="32.046%" x2="68.869%" y1="45.452%" y2="83.199%"><stop offset="0%" stop-color="#E5D6A8"/><stop offset="100%" stop-color="#EFBDBD"/></linearGradient><linearGradient id="linearGradient-8" x1="50%" x2="50%" y1="0%" y2="88.511%"><stop offset="0%" stop-color="#F6EAC7"/><stop offset="100%" stop-color="#B86F6F"/></linearGradient><linearGradient id="linearGradient-9" x1="32.046%" x2="68.869%" y1="48.863%" y2="58.3%"><stop offset="0%" stop-color="#E5D6A8"/><stop offset="100%" stop-color="#EFBDBD"/></linearGradient><linearGradient id="linearGradient-10" x1="32.046%" x2="68.869%" y1="48.863%" y2="58.3%"><stop offset="0%" stop-color="#E5D6A8"/><stop offset="100%" stop-color="#EFBDBD"/></linearGradient><linearGradient id="linearGradient-11" x1="32.046%" x2="68.869%" y1="48.863%" y2="58.3%"><stop offset="0%" stop-color="#E5D6A8"/><stop offset="100%" stop-color="#EFBDBD"/></linearGradient><linearGradient id="linearGradient-12" x1="50%" x2="50%" y1="20.229%" y2="124.857%"><stop offset="0%" stop-color="#F0E1C4"/><stop offset="64.773%" stop-color="#C1B49A"/><stop offset="100%" stop-color="#24C1E0"/></linearGradient><ellipse id="path-13" cx="78.959" cy="76.151" rx="78.56" ry="76"/><radialGradient id="radialGradient-15" cx="64.178%" cy="34.22%" r="53.574%" fx="64.178%" fy="34.22%" gradientTransform="translate(0.641781,0.342197),scale(0.968563,1.000000),rotate(44.795838),translate(-0.641781,-0.342197)"><stop offset="0%" stop-color="#FFFBD8" stop-opacity=".467"/><stop offset="100%" stop-color="#FFF" stop-opacity=".052"/></radialGradient><radialGradient id="radialGradient-16" cx="50%" cy="58.056%" r="75.276%" fx="50%" fy="58.056%"><stop offset="0%" stop-color="#FFFDEA" stop-opacity=".836"/><stop offset="100%" stop-color="#FFF" stop-opacity=".475"/></radialGradient></defs><g id="Symbols" fill="none" fill-rule="evenodd" stroke="none" stroke-width="1"><g id="square/together" transform="translate(14.000000, -109.000000)"><path id="Path-5" fill="#190066" d="M20.9135504,184 L64.9506055,184 C66.5384218,184 67.8256013,185.287179 67.8256013,186.874996 L67.8256013,186.874996 C67.8256013,188.462812 69.1127808,189.749992 70.7005971,189.749992 L116.355669,189.749992 C119.696934,189.749992 122.405565,192.458622 122.405565,195.799888 L122.405565,195.799888 C122.405565,199.141153 119.696934,201.849784 116.355669,201.849784 L82.0174271,201.849784 C79.5087578,201.849784 77.4750796,203.883462 77.4750796,206.392131 L77.4750796,206.392131 C77.4750796,208.9008 79.5087578,210.934478 82.0174271,210.934478 L104.865617,210.934478 C106.831044,210.934478 108.424337,212.527771 108.424337,214.493198 L108.424337,214.493198 C108.424337,216.458624 110.017629,218.051917 111.983056,218.051917 L153.527825,218.051917 C157.320891,218.051917 160.395779,221.126805 160.395779,224.919872 L160.395779,224.919872 C160.395779,228.712938 157.320891,231.787826 153.527825,231.787826 L120.250424,231.787826 C116.05225,231.787826 112.648958,235.191118 112.648958,239.389293 L112.648958,239.389293 C112.648958,243.587467 109.245665,246.99076 105.047491,246.99076 L87.7712031,246.99076 C85.5760671,246.99076 83.7965579,245.21125 83.7965579,243.016114 L83.7965579,243.016114 C83.7965579,240.820978 82.0170486,239.041469 79.8219126,239.041469 L63.6079407,239.041469 C59.3624356,239.041469 55.9207736,242.483131 55.9207736,246.728636 L55.9207736,246.728636 C55.9207736,250.974141 59.3624356,254.415803 63.6079407,254.415803 L69.7017815,254.415803 C73.383581,254.415803 76.3682692,257.400492 76.3682692,261.082291 L76.3682692,261.082291 C76.3682692,264.764091 73.383581,267.748779 69.7017815,267.748779 L12.2529439,267.748779 C8.57114443,267.748779 5.5864562,264.764091 5.5864562,261.082291 L5.5864562,261.082291 C5.5864562,257.400492 2.60176798,254.415803 -1.08003154,254.415803 L-5.0468132,254.415803 C-9.99152173,254.415803 -14,250.407325 -14,245.462617 L-14,245.462617 C-14,240.517908 -9.99152173,236.50943 -5.0468132,236.50943 L9.07030527,236.50943 C14.1402956,236.50943 18.2503349,232.39939 18.2503349,227.3294 C18.2503349,227.313158 18.2502918,227.296916 18.2502056,227.280674 L18.2502056,227.280674 C18.2231094,222.175868 14.0772114,218.051917 8.97233347,218.051917 L-8.70109545,218.051917 C-11.3999802,218.051917 -13.5878586,215.864039 -13.5878586,213.165154 L-13.5878586,213.165154 C-13.5878586,210.466269 -11.3999802,208.278391 -8.70109545,208.278391 L2.52598209,208.278391 C4.30119299,208.278391 5.74028577,206.839298 5.74028577,205.064087 L5.74028577,205.064087 C5.74028577,203.288876 7.17937855,201.849784 8.95458946,201.849784 L21.7665632,201.849784 C23.8069475,201.849784 25.4610057,200.195725 25.4610057,198.155341 L25.4610057,198.155341 C25.4610057,196.114957 23.8069475,194.460898 21.7665632,194.460898 L20.5720535,194.460898 C17.8719597,194.460898 15.6831012,192.27204 15.6831012,189.571946 L15.6831012,189.230449 C15.6831012,186.341752 18.0248531,184 20.9135504,184 Z" opacity=".024"/><path id="Path-10" fill="#190066" d="M316.747351,109.491874 L369.035008,109.491874 C373.929515,109.491874 377.897296,113.459655 377.897296,118.354162 L377.897296,118.354162 C377.897296,123.248669 381.865078,127.21645 386.759585,127.21645 L404.556568,127.21645 C409.324761,127.21645 413.190145,131.081834 413.190145,135.850027 L413.190145,135.850027 C413.190145,140.61822 409.324761,144.483604 404.556568,144.483604 L366.013067,144.483604 C361.592945,144.483604 358.009728,148.066821 358.009728,152.486943 L358.009728,152.486943 C358.009728,156.907065 361.592945,160.490282 366.013067,160.490282 L434.750815,160.490282 C437.314067,160.490282 439.391993,162.568208 439.391993,165.131459 L439.391993,165.131459 C439.391993,167.694711 437.314067,169.772637 434.750815,169.772637 L401.014662,169.772637 C397.669425,169.772637 394.957575,172.484487 394.957575,175.829724 L394.957575,175.829724 C394.957575,179.17496 397.669425,181.886811 401.014662,181.886811 L404.319811,181.886811 C407.569697,181.886811 410.204251,184.521364 410.204251,187.771251 L410.204251,187.771251 C410.204251,191.038151 407.587136,193.702861 404.320767,193.761733 L359.020002,194.57822 C356.187048,194.62928 353.927523,196.959327 353.963526,199.792512 L353.963526,199.792512 C353.999318,202.609069 351.745063,204.921355 348.928506,204.957147 C348.921137,204.957241 348.913768,204.957319 348.906398,204.95738 L292.328664,205.431074 C288.225344,205.465429 284.871096,202.166881 284.836741,198.06356 C284.836567,198.042826 284.83648,198.022091 284.83648,198.001355 L284.83648,198.001355 C284.83648,193.863391 288.190963,190.508909 292.328927,190.508909 L297.846951,190.508909 C302.18803,190.508909 305.70717,186.989769 305.70717,182.648689 L305.70717,182.648689 C305.70717,178.30761 302.18803,174.78847 297.846951,174.78847 L286.079764,174.78847 C282.131428,174.78847 278.93067,171.587712 278.93067,167.639376 L278.93067,167.639376 C278.93067,163.69104 282.131428,160.490282 286.079764,160.490282 L292.31892,160.490282 C299.713046,160.490282 305.70717,154.496158 305.70717,147.102032 L305.70717,146.341513 C305.70717,138.527364 299.372551,132.192745 291.558402,132.192745 L245.747356,132.192745 C242.082379,132.192745 239.111328,129.221694 239.111328,125.556716 L239.111328,125.556716 C239.111328,121.891739 242.082379,118.920688 245.747356,118.920688 L307.318536,118.920688 C309.922231,118.920688 312.032943,116.809976 312.032943,114.206281 L312.032943,114.206281 C312.032943,111.602586 314.143655,109.491874 316.747351,109.491874 Z" opacity=".024" transform="translate(339.251660, 157.461607) scale(1, -1) translate(-339.251660, -157.461607)"/><path id="Path-8" fill="#190066" d="M285.941144,284.174968 L322.499218,284.174968 C326.490264,284.174968 329.725647,280.939586 329.725647,276.948539 L329.725647,276.948539 C329.725647,272.957492 326.490264,269.72211 322.499218,269.72211 L320.045962,269.72211 C315.704421,269.72211 312.184907,266.202596 312.184907,261.861055 L312.184907,261.861055 C312.184907,257.519514 315.704421,254 320.045962,254 L356.793061,254 C359.903244,254 362.424546,256.521302 362.424546,259.631485 L362.424546,259.631485 C362.424546,262.741669 364.945848,265.26297 368.056031,265.26297 L389.389225,265.26297 C394.611629,265.26297 398.845224,269.496565 398.845224,274.718969 L398.845224,274.718969 C398.845224,279.941373 394.611629,284.174968 389.389225,284.174968 L368.303761,284.174968 C365.05676,284.174968 362.424546,286.807182 362.424546,290.054183 L362.424546,290.054183 C362.424546,293.301184 359.792332,295.933398 356.545331,295.933398 L285.818557,295.933398 C282.605057,295.933398 280,293.328342 280,290.114841 C280,290.094621 280.000105,290.074402 280.000316,290.054183 L280.000316,290.054183 C280.034271,286.797315 282.684099,284.174968 285.941144,284.174968 Z" opacity=".024" transform="translate(339.422612, 274.966699) scale(1, -1) translate(-339.422612, -274.966699)"/><rect id="Rectangle" width="41.966" height="14.113" x="12.799" y="281.118" fill="#190066" opacity=".024" rx="7.056"/><rect id="Rectangle" width="71" height="12.2" x="372.5" y="221" fill="#190066" opacity=".024" rx="6.1"/><g id="Group" transform="translate(73.000000, 89.000000)"><g id="Group-5" transform="translate(91.906775, 230.168319)"><mask id="mask-3" fill="#fff"><use xlink:href="#path-2"/></mask><use id="Path" fill="url(#radialGradient-1)" fill-rule="nonzero" xlink:href="#path-2"/><path id="Fill-3" fill="#FFF" fill-rule="nonzero" d="M-4,77.8412428 L54.5596669,77.8412428 L54.5596669,66.1297549 L-4,66.1297549 L-4,77.8412428 Z M48.4845275,-30 L39.0872723,-23.010527 L74.0368647,23.9768624 L83.4341199,16.9873894 L48.4845275,-30 Z M19.43634,-2.29825501 L64.434692,35.1771699 L71.929777,26.1774995 L26.931425,-11.2979254 L19.43634,-2.29825501 Z M4.74575072,23.7452164 L57.8316669,48.46786 L62.7764183,37.8511222 L9.69050218,13.1273649 L4.74575072,23.7452164 Z M-2.83620151,51.1852459 L54.471686,63.229725 L56.8805818,51.767702 L-0.427305703,39.7232229 L-2.83620151,51.1852459 L-2.83620151,51.1852459 Z" mask="url(#mask-3)" opacity=".071" transform="translate(39.717060, 23.920621) rotate(-114.000000) translate(-39.717060, -23.920621)"/></g><ellipse id="Oval" cx="138.959" cy="231.676" fill="url(#linearGradient-4)" fill-rule="nonzero" rx="37.149" ry="13.325"/><ellipse id="Oval" cx="138.959" cy="231.676" fill="url(#linearGradient-5)" fill-rule="nonzero" rx="33.846" ry="11.056"/><path id="Path-6" fill="url(#linearGradient-6)" d="M87.3172092,157.41481 C85.0545306,151.38681 78.7105975,167.402689 78.7105975,178.497952 C78.7105975,189.593214 85.21679,206.572099 87.3172092,201.426818 C89.4176284,196.281537 89.5798878,163.44281 87.3172092,157.41481 Z" opacity=".16" transform="translate(83.832267, 179.236593) rotate(-14.000000) translate(-83.832267, -179.236593)"/><circle id="Oval" cx="234.997" cy="121.112" r="6.081" stroke="url(#linearGradient-7)" stroke-width="4" opacity=".648"/><circle id="Oval" cx="154.958" cy="67.073" r="6.042" stroke="url(#linearGradient-7)" stroke-width="4" opacity=".648"/><circle id="Oval" cx="37.893" cy="221.66" r="3.629" stroke="url(#linearGradient-7)" stroke-width="4" opacity=".648"/><circle id="Oval" cx="189.784" cy="85.784" r="3.784" fill="url(#linearGradient-8)" fill-rule="nonzero" opacity=".95"/><circle id="Oval" cx="81.701" cy="57.816" r="2.784" fill="url(#linearGradient-8)" fill-rule="nonzero" opacity=".95"/><circle id="Oval" cx="73.784" cy="99.784" r="2.784" fill="url(#linearGradient-8)" fill-rule="nonzero" opacity=".95"/><circle id="Oval" cx="235.701" cy="187.816" r="3.784" fill="url(#linearGradient-8)" fill-rule="nonzero" opacity=".95"/><path id="Oval" stroke="url(#linearGradient-9)" stroke-width="4" d="M49.5387538,127.289548 C48.6506682,123.839093 45.5184676,121.289548 41.7907887,121.289548 C38.0631099,121.289548 34.9309093,123.839093 34.0428237,127.289548 L49.5387538,127.289548 Z" opacity=".648" transform="translate(41.790789, 124.289548) rotate(40.000000) translate(-41.790789, -124.289548)"/><path id="Oval" stroke="url(#linearGradient-10)" stroke-width="4" d="M223.952521,227.948863 L221.484735,227.948863 L223.484735,229.948863 C223.484735,229.230439 223.653098,228.551337 223.952521,227.948863 Z M232.016489,227.948863 C232.315912,228.551337 232.484276,229.230439 232.484276,229.948863 L234.484276,227.948863 L232.016489,227.948863 Z" opacity=".648" transform="translate(227.984505, 226.698978) rotate(140.000000) translate(-227.984505, -226.698978)"/><path id="Oval" stroke="url(#linearGradient-11)" stroke-width="4" d="M0.562546035,162.780668 L-2,162.780668 L0,164.780668 C0,164.047759 0.205711692,163.362896 0.562546035,162.780668 Z M7.10307896,162.780668 C7.45991331,163.362896 7.665625,164.047759 7.665625,164.780668 L9.665625,162.780668 L7.10307896,162.780668 Z" opacity=".648" transform="translate(3.832812, 161.864262) scale(-1, 1) rotate(90.000000) translate(-3.832812, -161.864262)"/><path id="Oval" stroke="url(#linearGradient-11)" stroke-width="4" d="M193.896767,57.8328125 L191.334221,57.8328125 L193.334221,59.8328125 C193.334221,59.0999029 193.539933,58.4150399 193.896767,57.8328125 Z M200.4373,57.8328125 C200.794135,58.4150399 200.999846,59.0999029 200.999846,59.8328125 L202.999846,57.8328125 L200.4373,57.8328125 Z" opacity=".648" transform="translate(197.167034, 56.916406) scale(-1, 1) rotate(170.000000) translate(-197.167034, -56.916406)"/></g><g id="Group-4" transform="translate(133.000000, 182.000000)"><mask id="mask-14" fill="#fff"><use xlink:href="#path-13"/></mask><use id="Oval" fill="url(#linearGradient-12)" fill-rule="nonzero" opacity=".95" xlink:href="#path-13"/><path id="Oval" fill="url(#radialGradient-15)" fill-rule="nonzero" d="M131.276199,125.272543 C158.255236,99.1416379 156.79235,55.3581723 128.008751,27.4794352 C99.2251519,-0.399301931 54.0206037,-1.81619998 27.0415665,24.3147048 C0.0625293289,50.4456096 1.52541572,94.2290753 30.3090147,122.107812 C59.0926137,149.98655 104.297162,151.403448 131.276199,125.272543 Z" mask="url(#mask-14)" opacity=".867"/></g><rect id="Rectangle" width="48" height="48" x="188.286" y="233.872" fill="url(#radialGradient-16)" fill-rule="nonzero"/></g></g></svg>