<svg xmlns="http://www.w3.org/2000/svg" xmlns:xlink="http://www.w3.org/1999/xlink" width="1186" height="384" version="1.1" viewBox="0 0 1186 384"><g id="Design" fill="none" fill-rule="evenodd" stroke="none" stroke-width="1"><g id="desktop_experiment_single" transform="translate(-97.000000, 0.000000)"><g id="particles" transform="translate(99.000000, -63.000000)"><circle id="Oval" cx="577.625" cy="64.625" r="17.625" fill="#EFEFEF"/><circle id="Oval-Copy-12" cx="425.957" cy="333.625" r="17.625" fill="#EFEFEF"/><circle id="Oval-Copy-18" cx="1085.625" cy="218.625" r="17.625" fill="#EFEFEF"/><circle id="Oval-Copy-15" cx="188.788" cy="245.788" r="8.788" fill="#EFEFEF"/><circle id="Oval-Copy-10" cx="840.809" cy="224.809" r="48.809" stroke="#E9E9E9" stroke-width="2"/><circle id="Oval-Copy-13" cx="181.809" cy="48.809" r="48.809" stroke="#E9E9E9" stroke-width="2"/><circle id="Oval-Copy-11" cx="707.981" cy="95.981" r="18.981" stroke="#E9E9E9" stroke-width="2"/><circle id="Oval-Copy-17" cx="1137.981" cy="284.981" r="18.981" stroke="#E9E9E9" stroke-width="2"/><circle id="Oval-Copy-2" cx="821.101" cy="317.101" r="6.101" fill="#9FC1F9"/><circle id="Oval-Copy-14" cx="306.101" cy="383.101" r="6.101" fill="#9FC1F9"/><circle id="Oval-Copy-8" cx="483.067" cy="403.067" r="4.067" fill="#FF4181"/><circle id="Oval-Copy-19" cx="1023.067" cy="281.067" r="4.067" fill="#FF4181"/><circle id="Oval-Copy-3" cx="503.813" cy="86.813" r="8.813" fill="#FABB07"/><circle id="Oval-Copy-16" cx="961.813" cy="203.813" r="8.813" fill="#FABB07"/><circle id="Oval-Copy-4" cx="660.067" cy="86.067" r="4.067" fill="#31A852"/><circle id="Oval-Copy-9" cx="189.067" cy="160.067" r="4.067" fill="#31A852"/><circle id="Oval-Copy-5" cx="455.101" cy="194.101" r="6.101" fill="#6A1B9A"/><rect id="Rectangle" width="17.625" height="17.625" x="758" y="138" fill="#438AFF"/><rect id="Rectangle-Copy" width="24.404" height="24.404" x="437" y="115" fill="#EFEFEF"/><rect id="Rectangle-Copy-4" width="24.404" height="24.404" x="959" y="96" fill="#EFEFEF"/><rect id="Rectangle-Copy-3" width="24.404" height="24.404" x="288" y="103" fill="#EFEFEF"/><polygon id="Rectangle-Copy-2" stroke="#E9E9E9" stroke-width="2" points="280 208.265 374.291 183 399.556 277.291 305.265 302.556"/><polygon id="Rectangle-Copy-5" stroke="#E9E9E9" stroke-width="2" points="1068.573 41 1182.673 71.573 1152.1 185.673 1038 155.1"/><polygon id="Star" fill="#66BAFF" points="373.012 123.045 373 116 379.095 119.532 385.202 123.045 379.095 126.557 373 130.09"/><polygon id="Star-Copy-4" stroke="#E9E9E9" stroke-width="2" points="771.863 399.199 772.578 354 811.288 377.346 850.074 400.564 810.501 422.415 771 444.396"/><polygon id="Star-Copy-5" stroke="#E9E9E9" stroke-width="2" points=".863 164.199 1.578 119 40.288 142.346 79.074 165.564 39.501 187.415 0 209.396"/><polygon id="Star-Copy-6" fill="#EFEFEF" points="940.485 335.93 933 328.47 943.212 325.752 953.415 323 950.663 333.203 947.945 343.415"/></g></g></g></svg>