<svg xmlns="http://www.w3.org/2000/svg" xmlns:xlink="http://www.w3.org/1999/xlink" width="375" height="288" version="1.1" viewBox="0 0 375 288"><g id="Design" fill="none" fill-rule="evenodd" stroke="none" stroke-width="1"><g id="pi_1_load2"><g id="particles" transform="translate(-30.000000, -11.000000)"><circle id="Oval" cx="180" cy="13" r="13" fill="#EFEFEF"/><circle id="Oval-Copy-12" cx="95.678" cy="222.182" r="13" fill="#EFEFEF"/><circle id="Oval-Copy-9" cx="402" cy="78" r="13" fill="#EFEFEF"/><circle id="Oval-Copy-10" cx="382" cy="129" r="36" stroke="#E9E9E9" stroke-width="2"/><circle id="Oval-Copy-11" cx="284" cy="34" r="14" stroke="#E9E9E9" stroke-width="2"/><circle id="Oval-Copy-2" cx="356.5" cy="206.5" r="4.5" fill="#9FC1F9"/><circle id="Oval-Copy-14" cx="62.5" cy="256.5" r="4.5" fill="#9FC1F9"/><circle id="Oval-Copy" cx="384.5" cy="37.5" r="4.5" fill="#E0392C"/><circle id="Oval-Copy-8" cx="147" cy="277" r="3" fill="#FF4181"/><circle id="Oval-Copy-3" cx="133.5" cy="27.5" r="6.5" fill="#FABB07"/><circle id="Oval-Copy-4" cx="249" cy="27" r="3" fill="#31A852"/><circle id="Oval-Copy-5" cx="97.5" cy="106.5" r="4.5" fill="#6A1B9A"/><rect id="Rectangle" width="13" height="13" x="307" y="59" fill="#438AFF"/><rect id="Rectangle-Copy" width="18" height="18" x="94" y="46" fill="#EFEFEF"/><rect id="Rectangle-Copy-2" width="72" height="72" x="8.909" y="122.091" stroke="#E9E9E9" stroke-width="2" transform="translate(44.909185, 158.090815) rotate(-15.000000) translate(-44.909185, -158.090815)"/><polygon id="Star" fill="#66BAFF" points="52 72.991 46.804 73 49.409 68.504 52 64 54.591 68.504 57.196 73" transform="translate(52.000000, 70.000000) rotate(-270.000000) translate(-52.000000, -70.000000)"/><polygon id="Star-Copy-4" stroke="#E9E9E9" stroke-width="2" points="346.635 282.676 313.293 282.73 330.011 253.883 346.635 224.98 363.258 253.883 379.977 282.73" transform="translate(346.634527, 263.480197) rotate(-269.000000) translate(-346.634527, -263.480197)"/><polygon id="Star-Copy-3" fill="#EFEFEF" points="380.728 205.215 372.934 205.228 376.842 198.484 380.728 191.728 384.614 198.484 388.522 205.228" transform="translate(380.727922, 200.727922) rotate(-315.000000) translate(-380.727922, -200.727922)"/></g></g></g></svg>